Coordinates
version=1
nRows=12
nColumns=19
inDegrees=yes

Units are S.I. units (second, meters, Newtons, ...)
If the header above contains a line with 'inDegrees', this indicates whether rotational values are in degrees (yes) or radians (no).

endheader
time	pelvis_tilt	pelvis_list	pelvis_rotation	pelvis_tx	pelvis_ty	pelvis_tz	hip_flexion_r	hip_adduction_r	hip_rotation_r	knee_angle_r	knee_angle_r_beta	ankle_angle_r	hip_flexion_l	hip_adduction_l	hip_rotation_l	knee_angle_l	knee_angle_l_beta	ankle_angle_l
     11.18000000	     -9.25532919	     -4.67295897	     -0.53547751	      2.17475083	      0.95545504	      0.99410971	     30.67756959	      6.92860925	    -13.75308370	     18.16958575	      0.31711909	     12.70168384	     -9.91660721	     -6.02744270	     -0.75329430	     36.21276903	      0.63203205	    -14.21592868
     11.18666667	     -8.56352302	     -4.97028579	     -0.69952518	      2.17503507	      0.95201005	      0.99430446	     30.18650635	      7.11491277	    -14.27038864	     19.97532617	      0.34863521	     12.34227501	     -9.91260595	     -6.48566084	     -0.84201746	     39.07203812	      0.68193571	    -14.54387082
     11.19333333	     -8.46850436	     -5.15098020	     -0.73468783	      2.17506221	      0.94757457	      0.99432522	     30.46837238	      7.02662854	    -14.85561653	     22.24645362	      0.38827386	     11.98193758	     -9.00288747	     -6.88902609	     -0.77972593	     42.27276774	      0.73779898	    -14.85027913
     11.20000000	     -7.62414944	     -5.49255499	     -0.88758250	      2.17524469	      0.94379483	      0.99442838	     29.86711446	      7.18093185	    -15.18899175	     24.54243874	      0.42834636	     11.68437424	     -8.97228161	     -7.51442702	     -1.17743423	     45.29020529	      0.79046320	    -15.32507573
     11.20666667	     -7.50909207	     -5.66549172	     -0.91285472	      2.17509311	      0.93898652	      0.99445154	     30.16303978	      7.05281485	    -15.49313125	     27.16155083	      0.47405849	     11.55185957	     -7.88054196	     -8.04564876	     -1.35047387	     48.61126616	      0.84842665	    -15.71852383
     11.21333333	     -6.63662761	     -6.02438021	     -1.03076388	      2.17504479	      0.93498288	      0.99458110	     29.54854720	      7.21890045	    -15.55919810	     29.68323880	      0.51807025	     11.71523949	     -7.69175452	     -8.81751510	     -1.85973238	     51.70333359	      0.90239341	    -16.09714559
     11.22000000	     -5.86985617	     -6.35533443	     -1.10067560	      2.17483320	      0.93086770	      0.99473785	     29.03846548	      7.36857693	    -15.49849346	     32.23007312	      0.56252089	     12.15125428	     -7.27563136	     -9.62011638	     -2.29978741	     54.81956738	      0.95678195	    -16.40032819
     11.22666667	     -5.86399160	     -6.51654442	     -1.15691982	      2.17423989	      0.92596246	      0.99495913	     29.38245227	      7.35421264	    -15.31560850	     34.85013877	      0.60824967	     12.85649523	     -5.81586410	    -10.26278498	     -2.47084019	     58.11348976	      1.01427174	    -16.46821874
     11.23333333	     -5.03308936	     -6.80767353	     -1.22501752	      2.17368465	      0.92218215	      0.99524256	     28.69717747	      7.56945533	    -15.01146768	     37.22996288	      0.64978543	     13.92960454	     -5.32227259	    -11.05877494	     -2.80655380	     61.09901428	      1.06637897	    -16.44979044
     11.24000000	     -4.67328491	     -7.01256387	     -1.25825080	      2.17284109	      0.91809399	      0.99553959	     28.45948608	      7.72339011	    -14.66456823	     39.48521804	      0.68914706	     15.21788101	     -4.15314413	    -11.75281178	     -2.88276927	     64.13119063	      1.11930043	    -16.11591352
     11.24666667	     -4.05566028	     -7.18182998	     -1.28966594	      2.17191088	      0.91465129	      0.99589132	     27.81670560	      7.91215967	    -14.22508611	     41.51986397	      0.72465833	     16.74417777	     -3.24640428	    -12.36147913	     -2.88084715	     66.93670060	      1.16826582	    -15.71850318
     11.25333333	     -4.24825895	     -7.15739167	     -1.25237663	      2.17062852	      0.91064774	      0.99615060	     27.98133360	      7.89114044	    -13.82161757	     43.41601049	      0.75775233	     18.32576553	     -1.21959215	    -12.67678590	     -2.44885545	     69.82257642	      1.21863385	    -15.04626431
